<mxfile host="Electron" modified="2023-09-08T09:20:50.014Z" agent="Mozilla/5.0 (Windows NT 10.0; Win64; x64) AppleWebKit/537.36 (KHTML, like Gecko) draw.io/21.6.8 Chrome/114.0.5735.289 Electron/25.5.0 Safari/537.36" etag="Snod_kM3gnEEzENvj7rX" version="21.6.8" type="device">
  <diagram name="Pagina-1" id="P2irHhzb5EJcoQHnUQgg">
    <mxGraphModel dx="709" dy="337" grid="1" gridSize="10" guides="1" tooltips="1" connect="1" arrows="1" fold="1" page="1" pageScale="1" pageWidth="827" pageHeight="1169" math="0" shadow="0">
      <root>
        <mxCell id="0" />
        <mxCell id="1" parent="0" />
        <mxCell id="OxRx2X8CixISzTdGkHXe-2" value="«Struct»&lt;br&gt;&lt;b&gt;Token&lt;/b&gt;" style="html=1;whiteSpace=wrap;" parent="1" vertex="1">
          <mxGeometry x="180" y="210" width="110" height="50" as="geometry" />
        </mxCell>
        <mxCell id="OxRx2X8CixISzTdGkHXe-3" value="&lt;b&gt;Tokenizer&lt;/b&gt;" style="html=1;whiteSpace=wrap;" parent="1" vertex="1">
          <mxGeometry x="180" y="300" width="110" height="50" as="geometry" />
        </mxCell>
        <mxCell id="OxRx2X8CixISzTdGkHXe-4" value="&lt;b&gt;ParseProgram&lt;/b&gt;" style="html=1;whiteSpace=wrap;" parent="1" vertex="1">
          <mxGeometry x="180" y="380" width="110" height="50" as="geometry" />
        </mxCell>
        <mxCell id="OxRx2X8CixISzTdGkHXe-5" value="" style="endArrow=diamondThin;endFill=0;endSize=24;html=1;rounded=0;edgeStyle=orthogonalEdgeStyle;startArrow=open;startFill=0;" parent="1" source="OxRx2X8CixISzTdGkHXe-2" target="OxRx2X8CixISzTdGkHXe-4" edge="1">
          <mxGeometry width="160" relative="1" as="geometry">
            <mxPoint x="110" y="450" as="sourcePoint" />
            <mxPoint x="270" y="450" as="targetPoint" />
            <Array as="points">
              <mxPoint x="130" y="235" />
              <mxPoint x="130" y="405" />
            </Array>
          </mxGeometry>
        </mxCell>
        <mxCell id="OxRx2X8CixISzTdGkHXe-6" value="" style="endArrow=open;endFill=1;endSize=12;html=1;rounded=0;" parent="1" source="OxRx2X8CixISzTdGkHXe-3" target="OxRx2X8CixISzTdGkHXe-2" edge="1">
          <mxGeometry width="160" relative="1" as="geometry">
            <mxPoint x="110" y="450" as="sourcePoint" />
            <mxPoint x="270" y="450" as="targetPoint" />
          </mxGeometry>
        </mxCell>
        <mxCell id="OxRx2X8CixISzTdGkHXe-7" value="&lt;b&gt;Program&lt;/b&gt;" style="html=1;whiteSpace=wrap;" parent="1" vertex="1">
          <mxGeometry x="720" y="160" width="110" height="50" as="geometry" />
        </mxCell>
        <mxCell id="OxRx2X8CixISzTdGkHXe-8" value="&lt;b&gt;Block&lt;/b&gt;" style="html=1;whiteSpace=wrap;" parent="1" vertex="1">
          <mxGeometry x="720" y="260" width="110" height="50" as="geometry" />
        </mxCell>
        <mxCell id="OxRx2X8CixISzTdGkHXe-9" value="&lt;b&gt;BlockManager&lt;/b&gt;" style="html=1;whiteSpace=wrap;" parent="1" vertex="1">
          <mxGeometry x="490" y="260" width="110" height="50" as="geometry" />
        </mxCell>
        <mxCell id="OxRx2X8CixISzTdGkHXe-11" value="" style="endArrow=diamondThin;endFill=0;endSize=24;html=1;rounded=0;startArrow=open;startFill=0;" parent="1" source="OxRx2X8CixISzTdGkHXe-8" target="OxRx2X8CixISzTdGkHXe-7" edge="1">
          <mxGeometry width="160" relative="1" as="geometry">
            <mxPoint x="400" y="350" as="sourcePoint" />
            <mxPoint x="560" y="350" as="targetPoint" />
          </mxGeometry>
        </mxCell>
        <mxCell id="OxRx2X8CixISzTdGkHXe-12" value="&lt;i&gt;Statement&lt;/i&gt;" style="html=1;whiteSpace=wrap;" parent="1" vertex="1">
          <mxGeometry x="850" y="380" width="110" height="50" as="geometry" />
        </mxCell>
        <mxCell id="OxRx2X8CixISzTdGkHXe-13" value="&lt;b&gt;SetStmt&lt;/b&gt;" style="html=1;whiteSpace=wrap;" parent="1" vertex="1">
          <mxGeometry x="580" y="500" width="110" height="50" as="geometry" />
        </mxCell>
        <mxCell id="OxRx2X8CixISzTdGkHXe-14" value="&lt;b&gt;InputStmt&lt;/b&gt;" style="html=1;whiteSpace=wrap;" parent="1" vertex="1">
          <mxGeometry x="720" y="500" width="110" height="50" as="geometry" />
        </mxCell>
        <mxCell id="OxRx2X8CixISzTdGkHXe-15" value="&lt;b&gt;PrintStmt&lt;/b&gt;" style="html=1;whiteSpace=wrap;" parent="1" vertex="1">
          <mxGeometry x="850" y="500" width="110" height="50" as="geometry" />
        </mxCell>
        <mxCell id="OxRx2X8CixISzTdGkHXe-16" value="&lt;b&gt;IfStmt&lt;/b&gt;" style="html=1;whiteSpace=wrap;" parent="1" vertex="1">
          <mxGeometry x="980" y="500" width="110" height="50" as="geometry" />
        </mxCell>
        <mxCell id="OxRx2X8CixISzTdGkHXe-17" value="&lt;b&gt;WhileStmt&lt;/b&gt;" style="html=1;whiteSpace=wrap;" parent="1" vertex="1">
          <mxGeometry x="1120" y="500" width="110" height="50" as="geometry" />
        </mxCell>
        <mxCell id="OxRx2X8CixISzTdGkHXe-18" value="" style="endArrow=block;endSize=16;endFill=0;html=1;rounded=0;edgeStyle=orthogonalEdgeStyle;" parent="1" source="OxRx2X8CixISzTdGkHXe-13" target="OxRx2X8CixISzTdGkHXe-12" edge="1">
          <mxGeometry width="160" relative="1" as="geometry">
            <mxPoint x="840" y="500" as="sourcePoint" />
            <mxPoint x="1000" y="500" as="targetPoint" />
            <Array as="points">
              <mxPoint x="635" y="470" />
              <mxPoint x="905" y="470" />
            </Array>
          </mxGeometry>
        </mxCell>
        <mxCell id="OxRx2X8CixISzTdGkHXe-19" value="" style="endArrow=block;endSize=16;endFill=0;html=1;rounded=0;edgeStyle=orthogonalEdgeStyle;" parent="1" source="OxRx2X8CixISzTdGkHXe-14" target="OxRx2X8CixISzTdGkHXe-12" edge="1">
          <mxGeometry width="160" relative="1" as="geometry">
            <mxPoint x="700" y="513" as="sourcePoint" />
            <mxPoint x="860" y="447" as="targetPoint" />
            <Array as="points">
              <mxPoint x="775" y="470" />
              <mxPoint x="905" y="470" />
            </Array>
          </mxGeometry>
        </mxCell>
        <mxCell id="OxRx2X8CixISzTdGkHXe-20" value="" style="endArrow=block;endSize=16;endFill=0;html=1;rounded=0;edgeStyle=orthogonalEdgeStyle;" parent="1" source="OxRx2X8CixISzTdGkHXe-15" target="OxRx2X8CixISzTdGkHXe-12" edge="1">
          <mxGeometry width="160" relative="1" as="geometry">
            <mxPoint x="710" y="523" as="sourcePoint" />
            <mxPoint x="870" y="457" as="targetPoint" />
          </mxGeometry>
        </mxCell>
        <mxCell id="OxRx2X8CixISzTdGkHXe-22" value="" style="endArrow=block;endSize=16;endFill=0;html=1;rounded=0;edgeStyle=orthogonalEdgeStyle;" parent="1" source="OxRx2X8CixISzTdGkHXe-16" target="OxRx2X8CixISzTdGkHXe-12" edge="1">
          <mxGeometry width="160" relative="1" as="geometry">
            <mxPoint x="720" y="533" as="sourcePoint" />
            <mxPoint x="880" y="467" as="targetPoint" />
            <Array as="points">
              <mxPoint x="1035" y="470" />
              <mxPoint x="905" y="470" />
            </Array>
          </mxGeometry>
        </mxCell>
        <mxCell id="OxRx2X8CixISzTdGkHXe-23" value="" style="endArrow=block;endSize=16;endFill=0;html=1;rounded=0;edgeStyle=orthogonalEdgeStyle;" parent="1" source="OxRx2X8CixISzTdGkHXe-17" target="OxRx2X8CixISzTdGkHXe-12" edge="1">
          <mxGeometry width="160" relative="1" as="geometry">
            <mxPoint x="730" y="543" as="sourcePoint" />
            <mxPoint x="890" y="477" as="targetPoint" />
            <Array as="points">
              <mxPoint x="1165" y="470" />
              <mxPoint x="905" y="470" />
            </Array>
          </mxGeometry>
        </mxCell>
        <mxCell id="OxRx2X8CixISzTdGkHXe-26" value="&lt;i&gt;NumExpr&lt;/i&gt;" style="html=1;whiteSpace=wrap;" parent="1" vertex="1">
          <mxGeometry x="680" y="640" width="110" height="50" as="geometry" />
        </mxCell>
        <mxCell id="OxRx2X8CixISzTdGkHXe-27" value="&lt;b&gt;Operator&lt;/b&gt;" style="html=1;whiteSpace=wrap;" parent="1" vertex="1">
          <mxGeometry x="540" y="760" width="110" height="50" as="geometry" />
        </mxCell>
        <mxCell id="OxRx2X8CixISzTdGkHXe-28" value="&lt;b&gt;Number&lt;/b&gt;" style="html=1;whiteSpace=wrap;" parent="1" vertex="1">
          <mxGeometry x="680" y="760" width="110" height="50" as="geometry" />
        </mxCell>
        <mxCell id="OxRx2X8CixISzTdGkHXe-29" value="&lt;b&gt;Variable&lt;/b&gt;" style="html=1;whiteSpace=wrap;" parent="1" vertex="1">
          <mxGeometry x="820" y="760" width="110" height="50" as="geometry" />
        </mxCell>
        <mxCell id="OxRx2X8CixISzTdGkHXe-30" value="" style="endArrow=block;endSize=16;endFill=0;html=1;rounded=0;edgeStyle=orthogonalEdgeStyle;" parent="1" source="OxRx2X8CixISzTdGkHXe-27" target="OxRx2X8CixISzTdGkHXe-26" edge="1">
          <mxGeometry width="160" relative="1" as="geometry">
            <mxPoint x="840" y="640" as="sourcePoint" />
            <mxPoint x="1000" y="640" as="targetPoint" />
            <Array as="points">
              <mxPoint x="595" y="730" />
              <mxPoint x="735" y="730" />
            </Array>
          </mxGeometry>
        </mxCell>
        <mxCell id="OxRx2X8CixISzTdGkHXe-31" value="" style="endArrow=block;endSize=16;endFill=0;html=1;rounded=0;edgeStyle=orthogonalEdgeStyle;" parent="1" source="OxRx2X8CixISzTdGkHXe-28" target="OxRx2X8CixISzTdGkHXe-26" edge="1">
          <mxGeometry width="160" relative="1" as="geometry">
            <mxPoint x="644" y="770" as="sourcePoint" />
            <mxPoint x="706" y="730" as="targetPoint" />
          </mxGeometry>
        </mxCell>
        <mxCell id="OxRx2X8CixISzTdGkHXe-32" value="" style="endArrow=block;endSize=16;endFill=0;html=1;rounded=0;edgeStyle=orthogonalEdgeStyle;" parent="1" source="OxRx2X8CixISzTdGkHXe-29" target="OxRx2X8CixISzTdGkHXe-26" edge="1">
          <mxGeometry width="160" relative="1" as="geometry">
            <mxPoint x="654" y="780" as="sourcePoint" />
            <mxPoint x="716" y="740" as="targetPoint" />
            <Array as="points">
              <mxPoint x="875" y="730" />
              <mxPoint x="735" y="730" />
            </Array>
          </mxGeometry>
        </mxCell>
        <mxCell id="OxRx2X8CixISzTdGkHXe-33" value="&lt;i&gt;BoolExpr&lt;/i&gt;" style="html=1;whiteSpace=wrap;" parent="1" vertex="1">
          <mxGeometry x="1120" y="630" width="110" height="50" as="geometry" />
        </mxCell>
        <mxCell id="OxRx2X8CixISzTdGkHXe-34" value="&lt;b&gt;BoolConst&lt;/b&gt;" style="html=1;whiteSpace=wrap;" parent="1" vertex="1">
          <mxGeometry x="990" y="760" width="110" height="50" as="geometry" />
        </mxCell>
        <mxCell id="OxRx2X8CixISzTdGkHXe-35" value="&lt;b&gt;BoolOp&lt;/b&gt;" style="html=1;whiteSpace=wrap;" parent="1" vertex="1">
          <mxGeometry x="1120" y="760" width="110" height="50" as="geometry" />
        </mxCell>
        <mxCell id="OxRx2X8CixISzTdGkHXe-36" value="&lt;b&gt;RelOp&lt;/b&gt;" style="html=1;whiteSpace=wrap;" parent="1" vertex="1">
          <mxGeometry x="1250" y="760" width="110" height="50" as="geometry" />
        </mxCell>
        <mxCell id="OxRx2X8CixISzTdGkHXe-37" value="" style="endArrow=block;endSize=16;endFill=0;html=1;rounded=0;edgeStyle=orthogonalEdgeStyle;" parent="1" source="OxRx2X8CixISzTdGkHXe-34" target="OxRx2X8CixISzTdGkHXe-33" edge="1">
          <mxGeometry width="160" relative="1" as="geometry">
            <mxPoint x="930" y="670" as="sourcePoint" />
            <mxPoint x="1090" y="670" as="targetPoint" />
            <Array as="points">
              <mxPoint x="1045" y="730" />
              <mxPoint x="1175" y="730" />
            </Array>
          </mxGeometry>
        </mxCell>
        <mxCell id="OxRx2X8CixISzTdGkHXe-38" value="" style="endArrow=block;endSize=16;endFill=0;html=1;rounded=0;edgeStyle=orthogonalEdgeStyle;" parent="1" source="OxRx2X8CixISzTdGkHXe-35" target="OxRx2X8CixISzTdGkHXe-33" edge="1">
          <mxGeometry width="160" relative="1" as="geometry">
            <mxPoint x="1080" y="770" as="sourcePoint" />
            <mxPoint x="1150" y="700" as="targetPoint" />
            <Array as="points">
              <mxPoint x="1175" y="710" />
              <mxPoint x="1175" y="710" />
            </Array>
          </mxGeometry>
        </mxCell>
        <mxCell id="OxRx2X8CixISzTdGkHXe-39" value="" style="endArrow=block;endSize=16;endFill=0;html=1;rounded=0;edgeStyle=orthogonalEdgeStyle;" parent="1" source="OxRx2X8CixISzTdGkHXe-36" target="OxRx2X8CixISzTdGkHXe-33" edge="1">
          <mxGeometry width="160" relative="1" as="geometry">
            <mxPoint x="1090" y="780" as="sourcePoint" />
            <mxPoint x="1160" y="710" as="targetPoint" />
            <Array as="points">
              <mxPoint x="1305" y="730" />
              <mxPoint x="1175" y="730" />
            </Array>
          </mxGeometry>
        </mxCell>
        <mxCell id="OxRx2X8CixISzTdGkHXe-40" value="&lt;b&gt;BoolExprManager&lt;/b&gt;" style="html=1;whiteSpace=wrap;" parent="1" vertex="1">
          <mxGeometry x="1400" y="630" width="120" height="50" as="geometry" />
        </mxCell>
        <mxCell id="OxRx2X8CixISzTdGkHXe-41" value="&lt;i&gt;Visitor&lt;/i&gt;" style="html=1;whiteSpace=wrap;" parent="1" vertex="1">
          <mxGeometry x="830" y="980" width="110" height="50" as="geometry" />
        </mxCell>
        <mxCell id="OxRx2X8CixISzTdGkHXe-42" value="&lt;b&gt;PrintVisitor&lt;/b&gt;" style="html=1;whiteSpace=wrap;" parent="1" vertex="1">
          <mxGeometry x="750" y="1100" width="110" height="50" as="geometry" />
        </mxCell>
        <mxCell id="OxRx2X8CixISzTdGkHXe-43" value="&lt;b&gt;EvaluationVisitor&lt;/b&gt;" style="html=1;whiteSpace=wrap;" parent="1" vertex="1">
          <mxGeometry x="900" y="1100" width="110" height="50" as="geometry" />
        </mxCell>
        <mxCell id="OxRx2X8CixISzTdGkHXe-46" value="" style="endArrow=block;endSize=16;endFill=0;html=1;rounded=0;edgeStyle=orthogonalEdgeStyle;" parent="1" source="OxRx2X8CixISzTdGkHXe-42" target="OxRx2X8CixISzTdGkHXe-41" edge="1">
          <mxGeometry width="160" relative="1" as="geometry">
            <mxPoint x="770" y="990" as="sourcePoint" />
            <mxPoint x="930" y="990" as="targetPoint" />
          </mxGeometry>
        </mxCell>
        <mxCell id="OxRx2X8CixISzTdGkHXe-47" value="" style="endArrow=block;endSize=16;endFill=0;html=1;rounded=0;edgeStyle=orthogonalEdgeStyle;" parent="1" source="OxRx2X8CixISzTdGkHXe-43" target="OxRx2X8CixISzTdGkHXe-41" edge="1">
          <mxGeometry width="160" relative="1" as="geometry">
            <mxPoint x="835" y="1110" as="sourcePoint" />
            <mxPoint x="875" y="1060" as="targetPoint" />
          </mxGeometry>
        </mxCell>
        <mxCell id="OxRx2X8CixISzTdGkHXe-48" value="&lt;b&gt;NumExprManager&lt;/b&gt;" style="html=1;whiteSpace=wrap;" parent="1" vertex="1">
          <mxGeometry x="290" y="640" width="120" height="50" as="geometry" />
        </mxCell>
        <mxCell id="OxRx2X8CixISzTdGkHXe-49" value="" style="endArrow=diamondThin;endFill=0;endSize=24;html=1;rounded=0;edgeStyle=orthogonalEdgeStyle;startArrow=open;startFill=0;" parent="1" source="OxRx2X8CixISzTdGkHXe-26" target="OxRx2X8CixISzTdGkHXe-13" edge="1">
          <mxGeometry width="160" relative="1" as="geometry">
            <mxPoint x="740" y="700" as="sourcePoint" />
            <mxPoint x="900" y="700" as="targetPoint" />
            <Array as="points">
              <mxPoint x="735" y="610" />
              <mxPoint x="635" y="610" />
            </Array>
          </mxGeometry>
        </mxCell>
        <mxCell id="OxRx2X8CixISzTdGkHXe-50" value="" style="endArrow=diamondThin;endFill=0;endSize=24;html=1;rounded=0;edgeStyle=orthogonalEdgeStyle;" parent="1" source="OxRx2X8CixISzTdGkHXe-26" target="OxRx2X8CixISzTdGkHXe-15" edge="1">
          <mxGeometry width="160" relative="1" as="geometry">
            <mxPoint x="727" y="650" as="sourcePoint" />
            <mxPoint x="663" y="560" as="targetPoint" />
            <Array as="points">
              <mxPoint x="735" y="610" />
              <mxPoint x="905" y="610" />
            </Array>
          </mxGeometry>
        </mxCell>
        <mxCell id="OxRx2X8CixISzTdGkHXe-51" value="1" style="text;html=1;align=center;verticalAlign=middle;resizable=0;points=[];autosize=1;strokeColor=none;fillColor=none;" parent="1" vertex="1">
          <mxGeometry x="600" y="550" width="30" height="30" as="geometry" />
        </mxCell>
        <mxCell id="OxRx2X8CixISzTdGkHXe-52" value="1" style="text;html=1;align=center;verticalAlign=middle;resizable=0;points=[];autosize=1;strokeColor=none;fillColor=none;" parent="1" vertex="1">
          <mxGeometry x="910" y="550" width="30" height="30" as="geometry" />
        </mxCell>
        <mxCell id="OxRx2X8CixISzTdGkHXe-53" value="" style="endArrow=diamondThin;endFill=0;endSize=24;html=1;rounded=0;edgeStyle=orthogonalEdgeStyle;" parent="1" source="OxRx2X8CixISzTdGkHXe-29" target="OxRx2X8CixISzTdGkHXe-14" edge="1">
          <mxGeometry width="160" relative="1" as="geometry">
            <mxPoint x="740" y="700" as="sourcePoint" />
            <mxPoint x="900" y="700" as="targetPoint" />
            <Array as="points">
              <mxPoint x="890" y="590" />
              <mxPoint x="780" y="590" />
            </Array>
          </mxGeometry>
        </mxCell>
        <mxCell id="OxRx2X8CixISzTdGkHXe-54" value="" style="endArrow=diamondThin;endFill=0;endSize=24;html=1;rounded=0;edgeStyle=orthogonalEdgeStyle;startArrow=open;startFill=0;" parent="1" source="OxRx2X8CixISzTdGkHXe-29" target="OxRx2X8CixISzTdGkHXe-13" edge="1">
          <mxGeometry width="160" relative="1" as="geometry">
            <mxPoint x="875" y="770" as="sourcePoint" />
            <mxPoint x="795" y="560" as="targetPoint" />
            <Array as="points">
              <mxPoint x="890" y="590" />
              <mxPoint x="670" y="590" />
            </Array>
          </mxGeometry>
        </mxCell>
        <mxCell id="OxRx2X8CixISzTdGkHXe-55" value="1" style="text;html=1;align=center;verticalAlign=middle;resizable=0;points=[];autosize=1;strokeColor=none;fillColor=none;" parent="1" vertex="1">
          <mxGeometry x="680" y="550" width="30" height="30" as="geometry" />
        </mxCell>
        <mxCell id="OxRx2X8CixISzTdGkHXe-56" value="1" style="text;html=1;align=center;verticalAlign=middle;resizable=0;points=[];autosize=1;strokeColor=none;fillColor=none;" parent="1" vertex="1">
          <mxGeometry x="780" y="550" width="30" height="30" as="geometry" />
        </mxCell>
        <mxCell id="OxRx2X8CixISzTdGkHXe-57" value="" style="endArrow=diamondThin;endFill=0;endSize=24;html=1;rounded=0;edgeStyle=orthogonalEdgeStyle;startArrow=open;startFill=0;" parent="1" source="OxRx2X8CixISzTdGkHXe-26" target="OxRx2X8CixISzTdGkHXe-27" edge="1">
          <mxGeometry width="160" relative="1" as="geometry">
            <mxPoint x="620" y="660" as="sourcePoint" />
            <mxPoint x="780" y="660" as="targetPoint" />
            <Array as="points">
              <mxPoint x="570" y="680" />
            </Array>
          </mxGeometry>
        </mxCell>
        <mxCell id="OxRx2X8CixISzTdGkHXe-58" value="" style="endArrow=diamondThin;endFill=0;endSize=24;html=1;rounded=0;startArrow=open;startFill=0;edgeStyle=orthogonalEdgeStyle;" parent="1" source="OxRx2X8CixISzTdGkHXe-26" target="OxRx2X8CixISzTdGkHXe-48" edge="1">
          <mxGeometry width="160" relative="1" as="geometry">
            <mxPoint x="620" y="660" as="sourcePoint" />
            <mxPoint x="780" y="660" as="targetPoint" />
            <Array as="points">
              <mxPoint x="550" y="650" />
              <mxPoint x="550" y="650" />
            </Array>
          </mxGeometry>
        </mxCell>
        <mxCell id="OxRx2X8CixISzTdGkHXe-59" value="n" style="text;html=1;align=center;verticalAlign=middle;resizable=0;points=[];autosize=1;strokeColor=none;fillColor=none;" parent="1" vertex="1">
          <mxGeometry x="650" y="630" width="30" height="30" as="geometry" />
        </mxCell>
        <mxCell id="OxRx2X8CixISzTdGkHXe-60" value="1" style="text;html=1;align=center;verticalAlign=middle;resizable=0;points=[];autosize=1;strokeColor=none;fillColor=none;" parent="1" vertex="1">
          <mxGeometry x="650" y="660" width="30" height="30" as="geometry" />
        </mxCell>
        <mxCell id="OxRx2X8CixISzTdGkHXe-61" value="" style="endArrow=diamondThin;endFill=0;endSize=24;html=1;rounded=0;edgeStyle=orthogonalEdgeStyle;startArrow=open;startFill=0;" parent="1" source="OxRx2X8CixISzTdGkHXe-26" target="OxRx2X8CixISzTdGkHXe-36" edge="1">
          <mxGeometry width="160" relative="1" as="geometry">
            <mxPoint x="790" y="750" as="sourcePoint" />
            <mxPoint x="950" y="750" as="targetPoint" />
            <Array as="points">
              <mxPoint x="510" y="680" />
              <mxPoint x="510" y="850" />
              <mxPoint x="1305" y="850" />
            </Array>
          </mxGeometry>
        </mxCell>
        <mxCell id="OxRx2X8CixISzTdGkHXe-63" value="" style="endArrow=diamondThin;endFill=0;endSize=24;html=1;rounded=0;edgeStyle=orthogonalEdgeStyle;startArrow=open;startFill=0;" parent="1" source="OxRx2X8CixISzTdGkHXe-33" target="OxRx2X8CixISzTdGkHXe-35" edge="1">
          <mxGeometry width="160" relative="1" as="geometry">
            <mxPoint x="1170" y="670" as="sourcePoint" />
            <mxPoint x="1040" y="820" as="targetPoint" />
            <Array as="points">
              <mxPoint x="1200" y="710" />
              <mxPoint x="1200" y="710" />
            </Array>
          </mxGeometry>
        </mxCell>
        <mxCell id="OxRx2X8CixISzTdGkHXe-64" value="2" style="text;html=1;align=center;verticalAlign=middle;resizable=0;points=[];autosize=1;strokeColor=none;fillColor=none;" parent="1" vertex="1">
          <mxGeometry x="1200" y="680" width="30" height="30" as="geometry" />
        </mxCell>
        <mxCell id="OxRx2X8CixISzTdGkHXe-65" value="" style="endArrow=diamondThin;endFill=0;endSize=24;html=1;rounded=0;startArrow=open;startFill=0;" parent="1" source="OxRx2X8CixISzTdGkHXe-33" target="OxRx2X8CixISzTdGkHXe-40" edge="1">
          <mxGeometry width="160" relative="1" as="geometry">
            <mxPoint x="930" y="900" as="sourcePoint" />
            <mxPoint x="1090" y="900" as="targetPoint" />
          </mxGeometry>
        </mxCell>
        <mxCell id="OxRx2X8CixISzTdGkHXe-66" value="n" style="text;html=1;align=center;verticalAlign=middle;resizable=0;points=[];autosize=1;strokeColor=none;fillColor=none;" parent="1" vertex="1">
          <mxGeometry x="1230" y="630" width="30" height="30" as="geometry" />
        </mxCell>
        <mxCell id="OxRx2X8CixISzTdGkHXe-67" value="" style="endArrow=diamondThin;endFill=0;endSize=24;html=1;rounded=0;edgeStyle=orthogonalEdgeStyle;startArrow=open;startFill=0;" parent="1" source="OxRx2X8CixISzTdGkHXe-33" target="OxRx2X8CixISzTdGkHXe-16" edge="1">
          <mxGeometry width="160" relative="1" as="geometry">
            <mxPoint x="930" y="560" as="sourcePoint" />
            <mxPoint x="1090" y="560" as="targetPoint" />
            <Array as="points">
              <mxPoint x="1175" y="610" />
              <mxPoint x="1035" y="610" />
            </Array>
          </mxGeometry>
        </mxCell>
        <mxCell id="OxRx2X8CixISzTdGkHXe-68" value="" style="endArrow=diamondThin;endFill=0;endSize=24;html=1;rounded=0;edgeStyle=orthogonalEdgeStyle;" parent="1" source="OxRx2X8CixISzTdGkHXe-33" target="OxRx2X8CixISzTdGkHXe-17" edge="1">
          <mxGeometry width="160" relative="1" as="geometry">
            <mxPoint x="1158" y="640" as="sourcePoint" />
            <mxPoint x="1072" y="560" as="targetPoint" />
          </mxGeometry>
        </mxCell>
        <mxCell id="OxRx2X8CixISzTdGkHXe-69" value="1" style="text;html=1;align=center;verticalAlign=middle;resizable=0;points=[];autosize=1;strokeColor=none;fillColor=none;" parent="1" vertex="1">
          <mxGeometry x="1190" y="550" width="30" height="30" as="geometry" />
        </mxCell>
        <mxCell id="OxRx2X8CixISzTdGkHXe-70" value="1" style="text;html=1;align=center;verticalAlign=middle;resizable=0;points=[];autosize=1;strokeColor=none;fillColor=none;" parent="1" vertex="1">
          <mxGeometry x="1040" y="550" width="30" height="30" as="geometry" />
        </mxCell>
        <mxCell id="OxRx2X8CixISzTdGkHXe-71" value="" style="endArrow=diamondThin;endFill=0;endSize=24;html=1;rounded=0;edgeStyle=orthogonalEdgeStyle;startArrow=open;startFill=0;" parent="1" source="OxRx2X8CixISzTdGkHXe-48" target="OxRx2X8CixISzTdGkHXe-4" edge="1">
          <mxGeometry width="160" relative="1" as="geometry">
            <mxPoint x="300" y="610" as="sourcePoint" />
            <mxPoint x="460" y="610" as="targetPoint" />
            <Array as="points">
              <mxPoint x="370" y="540" />
              <mxPoint x="235" y="540" />
            </Array>
          </mxGeometry>
        </mxCell>
        <mxCell id="OxRx2X8CixISzTdGkHXe-72" value="" style="endArrow=diamondThin;endFill=0;endSize=24;html=1;rounded=0;edgeStyle=orthogonalEdgeStyle;startArrow=open;startFill=0;" parent="1" source="OxRx2X8CixISzTdGkHXe-9" target="OxRx2X8CixISzTdGkHXe-4" edge="1">
          <mxGeometry width="160" relative="1" as="geometry">
            <mxPoint x="330" y="650" as="sourcePoint" />
            <mxPoint x="245" y="580" as="targetPoint" />
            <Array as="points">
              <mxPoint x="545" y="410" />
              <mxPoint x="370" y="410" />
              <mxPoint x="370" y="540" />
              <mxPoint x="235" y="540" />
            </Array>
          </mxGeometry>
        </mxCell>
        <mxCell id="OxRx2X8CixISzTdGkHXe-73" value="n" style="text;html=1;align=center;verticalAlign=middle;resizable=0;points=[];autosize=1;strokeColor=none;fillColor=none;" parent="1" vertex="1">
          <mxGeometry x="140" y="210" width="30" height="30" as="geometry" />
        </mxCell>
        <mxCell id="OxRx2X8CixISzTdGkHXe-75" value="1" style="text;html=1;align=center;verticalAlign=middle;resizable=0;points=[];autosize=1;strokeColor=none;fillColor=none;" parent="1" vertex="1">
          <mxGeometry x="240" y="440" width="30" height="30" as="geometry" />
        </mxCell>
        <mxCell id="OxRx2X8CixISzTdGkHXe-76" value="" style="endArrow=diamondThin;endFill=0;endSize=24;html=1;rounded=0;edgeStyle=orthogonalEdgeStyle;startArrow=open;startFill=0;" parent="1" source="OxRx2X8CixISzTdGkHXe-40" target="OxRx2X8CixISzTdGkHXe-4" edge="1">
          <mxGeometry width="160" relative="1" as="geometry">
            <mxPoint x="810" y="880" as="sourcePoint" />
            <mxPoint x="970" y="880" as="targetPoint" />
            <Array as="points">
              <mxPoint x="1460" y="880" />
              <mxPoint x="235" y="880" />
            </Array>
          </mxGeometry>
        </mxCell>
        <mxCell id="OxRx2X8CixISzTdGkHXe-77" value="" style="endArrow=diamondThin;endFill=0;endSize=24;html=1;rounded=0;edgeStyle=orthogonalEdgeStyle;startArrow=open;startFill=0;" parent="1" source="OxRx2X8CixISzTdGkHXe-8" target="OxRx2X8CixISzTdGkHXe-9" edge="1">
          <mxGeometry width="160" relative="1" as="geometry">
            <mxPoint x="550" y="310" as="sourcePoint" />
            <mxPoint x="710" y="310" as="targetPoint" />
            <Array as="points">
              <mxPoint x="640" y="285" />
              <mxPoint x="640" y="285" />
            </Array>
          </mxGeometry>
        </mxCell>
        <mxCell id="OxRx2X8CixISzTdGkHXe-79" value="n" style="text;html=1;align=center;verticalAlign=middle;resizable=0;points=[];autosize=1;strokeColor=none;fillColor=none;" parent="1" vertex="1">
          <mxGeometry x="690" y="260" width="30" height="30" as="geometry" />
        </mxCell>
        <mxCell id="OxRx2X8CixISzTdGkHXe-80" value="1" style="text;html=1;align=center;verticalAlign=middle;resizable=0;points=[];autosize=1;strokeColor=none;fillColor=none;" parent="1" vertex="1">
          <mxGeometry x="780" y="210" width="30" height="30" as="geometry" />
        </mxCell>
        <mxCell id="OxRx2X8CixISzTdGkHXe-81" value="" style="endArrow=diamondThin;endFill=0;endSize=24;html=1;rounded=0;edgeStyle=orthogonalEdgeStyle;startArrow=open;startFill=0;" parent="1" source="OxRx2X8CixISzTdGkHXe-8" target="OxRx2X8CixISzTdGkHXe-17" edge="1">
          <mxGeometry width="160" relative="1" as="geometry">
            <mxPoint x="760" y="340" as="sourcePoint" />
            <mxPoint x="920" y="340" as="targetPoint" />
            <Array as="points">
              <mxPoint x="1210" y="300" />
            </Array>
          </mxGeometry>
        </mxCell>
        <mxCell id="OxRx2X8CixISzTdGkHXe-82" value="1" style="text;html=1;align=center;verticalAlign=middle;resizable=0;points=[];autosize=1;strokeColor=none;fillColor=none;" parent="1" vertex="1">
          <mxGeometry x="1210" y="470" width="30" height="30" as="geometry" />
        </mxCell>
        <mxCell id="OxRx2X8CixISzTdGkHXe-83" value="" style="endArrow=diamondThin;endFill=0;endSize=24;html=1;rounded=0;edgeStyle=orthogonalEdgeStyle;startArrow=open;startFill=0;" parent="1" source="OxRx2X8CixISzTdGkHXe-8" target="OxRx2X8CixISzTdGkHXe-16" edge="1">
          <mxGeometry width="160" relative="1" as="geometry">
            <mxPoint x="760" y="340" as="sourcePoint" />
            <mxPoint x="920" y="340" as="targetPoint" />
            <Array as="points">
              <mxPoint x="1070" y="310" />
            </Array>
          </mxGeometry>
        </mxCell>
        <mxCell id="OxRx2X8CixISzTdGkHXe-84" value="2" style="text;html=1;align=center;verticalAlign=middle;resizable=0;points=[];autosize=1;strokeColor=none;fillColor=none;" parent="1" vertex="1">
          <mxGeometry x="840" y="310" width="30" height="30" as="geometry" />
        </mxCell>
        <mxCell id="OxRx2X8CixISzTdGkHXe-85" value="" style="endArrow=open;endSize=12;html=1;rounded=0;edgeStyle=orthogonalEdgeStyle;" parent="1" source="OxRx2X8CixISzTdGkHXe-7" target="OxRx2X8CixISzTdGkHXe-41" edge="1">
          <mxGeometry width="160" relative="1" as="geometry">
            <mxPoint x="880" y="600" as="sourcePoint" />
            <mxPoint x="1040" y="600" as="targetPoint" />
            <Array as="points">
              <mxPoint x="1590" y="185" />
              <mxPoint x="1590" y="930" />
              <mxPoint x="885" y="930" />
            </Array>
          </mxGeometry>
        </mxCell>
        <mxCell id="OxRx2X8CixISzTdGkHXe-87" value="" style="endArrow=open;endFill=1;endSize=12;html=1;rounded=0;edgeStyle=orthogonalEdgeStyle;" parent="1" source="OxRx2X8CixISzTdGkHXe-8" target="OxRx2X8CixISzTdGkHXe-41" edge="1">
          <mxGeometry width="160" relative="1" as="geometry">
            <mxPoint x="824.98" y="270" as="sourcePoint" />
            <mxPoint x="879.98" y="940" as="targetPoint" />
            <Array as="points">
              <mxPoint x="1590" y="270" />
              <mxPoint x="1590" y="930" />
              <mxPoint x="885" y="930" />
            </Array>
          </mxGeometry>
        </mxCell>
        <mxCell id="OxRx2X8CixISzTdGkHXe-89" value="" style="endArrow=diamondThin;endFill=0;endSize=24;html=1;rounded=0;edgeStyle=orthogonalEdgeStyle;startArrow=open;startFill=0;" parent="1" source="OxRx2X8CixISzTdGkHXe-12" target="OxRx2X8CixISzTdGkHXe-8" edge="1">
          <mxGeometry width="160" relative="1" as="geometry">
            <mxPoint x="1050" y="420" as="sourcePoint" />
            <mxPoint x="1210" y="420" as="targetPoint" />
            <Array as="points">
              <mxPoint x="905" y="350" />
              <mxPoint x="775" y="350" />
            </Array>
          </mxGeometry>
        </mxCell>
        <mxCell id="OxRx2X8CixISzTdGkHXe-90" value="n" style="text;html=1;align=center;verticalAlign=middle;resizable=0;points=[];autosize=1;strokeColor=none;fillColor=none;" parent="1" vertex="1">
          <mxGeometry x="900" y="350" width="30" height="30" as="geometry" />
        </mxCell>
        <mxCell id="OxRx2X8CixISzTdGkHXe-91" value="" style="endArrow=open;endFill=1;endSize=12;html=1;rounded=0;edgeStyle=orthogonalEdgeStyle;" parent="1" source="OxRx2X8CixISzTdGkHXe-26" target="OxRx2X8CixISzTdGkHXe-41" edge="1">
          <mxGeometry width="160" relative="1" as="geometry">
            <mxPoint x="830" y="780" as="sourcePoint" />
            <mxPoint x="990" y="780" as="targetPoint" />
            <Array as="points">
              <mxPoint x="960" y="660" />
              <mxPoint x="960" y="930" />
              <mxPoint x="885" y="930" />
            </Array>
          </mxGeometry>
        </mxCell>
        <mxCell id="OxRx2X8CixISzTdGkHXe-92" value="" style="endArrow=open;endFill=1;endSize=12;html=1;rounded=0;edgeStyle=orthogonalEdgeStyle;" parent="1" source="OxRx2X8CixISzTdGkHXe-33" target="OxRx2X8CixISzTdGkHXe-41" edge="1">
          <mxGeometry width="160" relative="1" as="geometry">
            <mxPoint x="960" y="780" as="sourcePoint" />
            <mxPoint x="1120" y="780" as="targetPoint" />
            <Array as="points">
              <mxPoint x="960" y="660" />
              <mxPoint x="960" y="930" />
              <mxPoint x="885" y="930" />
            </Array>
          </mxGeometry>
        </mxCell>
        <mxCell id="_QMLzWhznCgWN0QLYq6d-1" value="&lt;b&gt;StatementManager&lt;/b&gt;" style="html=1;whiteSpace=wrap;" parent="1" vertex="1">
          <mxGeometry x="580" y="380" width="130" height="50" as="geometry" />
        </mxCell>
        <mxCell id="_QMLzWhznCgWN0QLYq6d-2" value="" style="endArrow=diamondThin;endFill=0;endSize=24;html=1;rounded=0;startArrow=open;startFill=0;" parent="1" source="OxRx2X8CixISzTdGkHXe-12" target="_QMLzWhznCgWN0QLYq6d-1" edge="1">
          <mxGeometry width="160" relative="1" as="geometry">
            <mxPoint x="590" y="420" as="sourcePoint" />
            <mxPoint x="770" y="405" as="targetPoint" />
          </mxGeometry>
        </mxCell>
        <mxCell id="_QMLzWhznCgWN0QLYq6d-3" value="n" style="text;html=1;align=center;verticalAlign=middle;resizable=0;points=[];autosize=1;strokeColor=none;fillColor=none;" parent="1" vertex="1">
          <mxGeometry x="820" y="380" width="30" height="30" as="geometry" />
        </mxCell>
        <mxCell id="_QMLzWhznCgWN0QLYq6d-4" value="" style="endArrow=diamondThin;endFill=0;endSize=24;html=1;rounded=0;edgeStyle=orthogonalEdgeStyle;startArrow=open;startFill=0;" parent="1" source="_QMLzWhznCgWN0QLYq6d-1" target="OxRx2X8CixISzTdGkHXe-4" edge="1">
          <mxGeometry width="160" relative="1" as="geometry">
            <mxPoint x="590" y="420" as="sourcePoint" />
            <mxPoint x="750" y="420" as="targetPoint" />
            <Array as="points">
              <mxPoint x="370" y="410" />
              <mxPoint x="370" y="540" />
              <mxPoint x="235" y="540" />
            </Array>
          </mxGeometry>
        </mxCell>
        <mxCell id="eNAtSe2sYvYE1l3DZhM--1" value="1" style="text;html=1;align=center;verticalAlign=middle;resizable=0;points=[];autosize=1;strokeColor=none;fillColor=none;" parent="1" vertex="1">
          <mxGeometry x="780" y="230" width="30" height="30" as="geometry" />
        </mxCell>
        <mxCell id="eNAtSe2sYvYE1l3DZhM--2" value="1" style="text;html=1;align=center;verticalAlign=middle;resizable=0;points=[];autosize=1;strokeColor=none;fillColor=none;" parent="1" vertex="1">
          <mxGeometry x="780" y="310" width="30" height="30" as="geometry" />
        </mxCell>
        <mxCell id="eNAtSe2sYvYE1l3DZhM--3" value="1" style="text;html=1;align=center;verticalAlign=middle;resizable=0;points=[];autosize=1;strokeColor=none;fillColor=none;" parent="1" vertex="1">
          <mxGeometry x="620" y="260" width="30" height="30" as="geometry" />
        </mxCell>
        <mxCell id="eNAtSe2sYvYE1l3DZhM--4" value="1" style="text;html=1;align=center;verticalAlign=middle;resizable=0;points=[];autosize=1;strokeColor=none;fillColor=none;" parent="1" vertex="1">
          <mxGeometry x="720" y="380" width="30" height="30" as="geometry" />
        </mxCell>
        <mxCell id="eNAtSe2sYvYE1l3DZhM--5" value="1" style="text;html=1;align=center;verticalAlign=middle;resizable=0;points=[];autosize=1;strokeColor=none;fillColor=none;" parent="1" vertex="1">
          <mxGeometry x="140" y="380" width="30" height="30" as="geometry" />
        </mxCell>
        <mxCell id="eNAtSe2sYvYE1l3DZhM--7" value="1" style="text;html=1;align=center;verticalAlign=middle;resizable=0;points=[];autosize=1;strokeColor=none;fillColor=none;" parent="1" vertex="1">
          <mxGeometry x="510" y="310" width="30" height="30" as="geometry" />
        </mxCell>
        <mxCell id="eNAtSe2sYvYE1l3DZhM--8" value="1" style="text;html=1;align=center;verticalAlign=middle;resizable=0;points=[];autosize=1;strokeColor=none;fillColor=none;" parent="1" vertex="1">
          <mxGeometry x="550" y="380" width="30" height="30" as="geometry" />
        </mxCell>
        <mxCell id="eNAtSe2sYvYE1l3DZhM--9" value="1" style="text;html=1;align=center;verticalAlign=middle;resizable=0;points=[];autosize=1;strokeColor=none;fillColor=none;" parent="1" vertex="1">
          <mxGeometry x="370" y="610" width="30" height="30" as="geometry" />
        </mxCell>
        <mxCell id="eNAtSe2sYvYE1l3DZhM--10" value="1" style="text;html=1;align=center;verticalAlign=middle;resizable=0;points=[];autosize=1;strokeColor=none;fillColor=none;" parent="1" vertex="1">
          <mxGeometry x="1460" y="680" width="30" height="30" as="geometry" />
        </mxCell>
        <mxCell id="eNAtSe2sYvYE1l3DZhM--11" value="1" style="text;html=1;align=center;verticalAlign=middle;resizable=0;points=[];autosize=1;strokeColor=none;fillColor=none;" parent="1" vertex="1">
          <mxGeometry x="1360" y="630" width="30" height="30" as="geometry" />
        </mxCell>
        <mxCell id="eNAtSe2sYvYE1l3DZhM--12" value="1" style="text;html=1;align=center;verticalAlign=middle;resizable=0;points=[];autosize=1;strokeColor=none;fillColor=none;" parent="1" vertex="1">
          <mxGeometry x="1070" y="470" width="30" height="30" as="geometry" />
        </mxCell>
        <mxCell id="eNAtSe2sYvYE1l3DZhM--13" value="1" style="text;html=1;align=center;verticalAlign=middle;resizable=0;points=[];autosize=1;strokeColor=none;fillColor=none;" parent="1" vertex="1">
          <mxGeometry x="840" y="270" width="30" height="30" as="geometry" />
        </mxCell>
        <mxCell id="eNAtSe2sYvYE1l3DZhM--14" value="1" style="text;html=1;align=center;verticalAlign=middle;resizable=0;points=[];autosize=1;strokeColor=none;fillColor=none;" parent="1" vertex="1">
          <mxGeometry x="430" y="630" width="30" height="30" as="geometry" />
        </mxCell>
        <mxCell id="eNAtSe2sYvYE1l3DZhM--17" value="1" style="text;html=1;align=center;verticalAlign=middle;resizable=0;points=[];autosize=1;strokeColor=none;fillColor=none;" parent="1" vertex="1">
          <mxGeometry x="540" y="720" width="30" height="30" as="geometry" />
        </mxCell>
        <mxCell id="eNAtSe2sYvYE1l3DZhM--19" value="1" style="text;html=1;align=center;verticalAlign=middle;resizable=0;points=[];autosize=1;strokeColor=none;fillColor=none;" parent="1" vertex="1">
          <mxGeometry x="1310" y="810" width="30" height="30" as="geometry" />
        </mxCell>
        <mxCell id="eNAtSe2sYvYE1l3DZhM--20" value="1" style="text;html=1;align=center;verticalAlign=middle;resizable=0;points=[];autosize=1;strokeColor=none;fillColor=none;" parent="1" vertex="1">
          <mxGeometry x="1200" y="730" width="30" height="30" as="geometry" />
        </mxCell>
        <mxCell id="eNAtSe2sYvYE1l3DZhM--21" value="1" style="text;html=1;align=center;verticalAlign=middle;resizable=0;points=[];autosize=1;strokeColor=none;fillColor=none;" parent="1" vertex="1">
          <mxGeometry x="890" y="730" width="30" height="30" as="geometry" />
        </mxCell>
        <mxCell id="eNAtSe2sYvYE1l3DZhM--22" value="1" style="text;html=1;align=center;verticalAlign=middle;resizable=0;points=[];autosize=1;strokeColor=none;fillColor=none;" parent="1" vertex="1">
          <mxGeometry x="730" y="610" width="30" height="30" as="geometry" />
        </mxCell>
      </root>
    </mxGraphModel>
  </diagram>
</mxfile>
